<svg width="890" height="361" viewBox="0 0 890 361" fill="none" xmlns="http://www.w3.org/2000/svg">
<rect x="0.691162" y="0.666016" width="889" height="360.051" rx="20" fill="none"/>
<path d="M674.685 51.9531H744.306V158.018C750.373 157.345 763.413 156.899 769.167 156.69V51.9531H841.378V259.146H769.167V202.158C763.388 202.248 750.363 202.755 744.306 203.781V259.142H674.685V51.9531Z" fill="#FFFFFF"/>
<path d="M257.977 259.143V172.461C288.838 170.921 329.964 213.312 330.042 244.812L345.616 244.539C354.661 176.773 252.493 156.85 257.288 98.7463C258.919 78.9671 274.056 63.3841 291.241 56.2044C302.177 51.6879 314.212 51.31 325.852 50.7918C353.852 50.1044 409.767 51.9542 409.767 51.9542L409.898 123.082C381.983 120.818 338.981 103.151 336.607 64.5538C332.207 64.6257 324.957 64.964 320.482 65.3167C318.499 118.551 369.181 123.654 400.956 155.547C434.891 189.61 430.747 259.143 346.246 259.143H257.984H257.977Z" fill="#FFFFFF"/>
<path d="M143.699 146.904C153.174 125.632 161.004 86.7843 136.283 64.8112C136.283 64.8112 127.026 64.8364 123.458 65.2719L123.443 259.145H49.1319L48.6912 51.9526C93.4671 49.0483 139.611 47.0221 184.419 50.5022C201.263 51.5063 218.98 57.304 227.845 73.0886C238.6 90.7625 241.685 110.776 230.198 128.885C211.218 158.838 172.452 162.117 143.702 146.901L143.699 146.904Z" fill="#FFFFFF"/>
<path d="M632.454 51.9531L655.901 259.146H597.426C597.426 200.637 577.799 138.618 547.104 88.7851L567.079 51.9531H632.454Z" fill="#FFFFFF"/>
<path d="M443.239 132.49L452.821 51.9492H486.923C542.593 107.598 574.556 181.252 577.737 259.142H527.834C520.436 208.799 492.87 157.352 443.239 133.452V132.49Z" fill="#FFFFFF"/>
<path d="M235.799 259.143C158.812 271.872 134.779 230.77 139.005 162.154C158.063 171.781 183.577 176.403 206.705 173.114C216.799 172.081 225.439 168.273 235.43 166.881L235.796 259.143H235.799Z" fill="#FFFFFF"/>
<path d="M508.472 259.146H425.332L439.009 158.713C476.84 175.807 498.929 213.315 508.472 259.146Z" fill="#FFFFFF"/>
<rect x="48.6912" y="286.666" width="793" height="26.0508" fill="#FFFFFF"/>
</svg>
